<mxfile host="app.diagrams.net" modified="2021-01-26T00:32:20.551Z" agent="5.0 (Macintosh; Intel Mac OS X 11_1_0) AppleWebKit/537.36 (KHTML, like Gecko) Chrome/88.0.4324.96 Safari/537.36" etag="6YCXo2tDuXiMUIDbdEPz" version="14.2.7" type="github" pages="3">
  <diagram id="YS5v3eNINy9XvBaVBVcj" name="Page-1">
    <mxGraphModel dx="706" dy="288" grid="1" gridSize="10" guides="1" tooltips="1" connect="1" arrows="1" fold="1" page="1" pageScale="1" pageWidth="850" pageHeight="1100" math="0" shadow="0">
      <root>
        <mxCell id="0" />
        <mxCell id="1" parent="0" />
        <mxCell id="ziUqMleKNXKpgkatQRkx-9" style="edgeStyle=orthogonalEdgeStyle;rounded=0;orthogonalLoop=1;jettySize=auto;html=1;entryX=0.389;entryY=-0.022;entryDx=0;entryDy=0;entryPerimeter=0;" edge="1" parent="1" target="ziUqMleKNXKpgkatQRkx-2">
          <mxGeometry relative="1" as="geometry">
            <mxPoint x="320" y="120" as="sourcePoint" />
          </mxGeometry>
        </mxCell>
        <mxCell id="ziUqMleKNXKpgkatQRkx-1" value="" style="rounded=0;whiteSpace=wrap;html=1;" vertex="1" parent="1">
          <mxGeometry x="260" y="30" width="120" height="70" as="geometry" />
        </mxCell>
        <mxCell id="ziUqMleKNXKpgkatQRkx-2" value="Song List" style="rounded=0;whiteSpace=wrap;html=1;" vertex="1" parent="1">
          <mxGeometry x="110" y="160" width="120" height="60" as="geometry" />
        </mxCell>
        <mxCell id="ziUqMleKNXKpgkatQRkx-3" value="Song Detail" style="rounded=0;whiteSpace=wrap;html=1;" vertex="1" parent="1">
          <mxGeometry x="380" y="160" width="120" height="60" as="geometry" />
        </mxCell>
        <mxCell id="ziUqMleKNXKpgkatQRkx-7" value="" style="endArrow=none;html=1;" edge="1" parent="1">
          <mxGeometry width="50" height="50" relative="1" as="geometry">
            <mxPoint x="320" y="120" as="sourcePoint" />
            <mxPoint x="320" y="90" as="targetPoint" />
          </mxGeometry>
        </mxCell>
        <mxCell id="ziUqMleKNXKpgkatQRkx-8" value="" style="endArrow=none;html=1;" edge="1" parent="1">
          <mxGeometry width="50" height="50" relative="1" as="geometry">
            <mxPoint x="320" y="120" as="sourcePoint" />
            <mxPoint x="440" y="120" as="targetPoint" />
          </mxGeometry>
        </mxCell>
        <mxCell id="ziUqMleKNXKpgkatQRkx-11" value="" style="endArrow=classic;html=1;entryX=0.5;entryY=0;entryDx=0;entryDy=0;" edge="1" parent="1" target="ziUqMleKNXKpgkatQRkx-3">
          <mxGeometry width="50" height="50" relative="1" as="geometry">
            <mxPoint x="440" y="120" as="sourcePoint" />
            <mxPoint x="390" y="130" as="targetPoint" />
          </mxGeometry>
        </mxCell>
        <mxCell id="ziUqMleKNXKpgkatQRkx-17" value="APP" style="text;html=1;strokeColor=none;fillColor=none;align=center;verticalAlign=middle;whiteSpace=wrap;rounded=0;" vertex="1" parent="1">
          <mxGeometry x="300" y="30" width="40" height="20" as="geometry" />
        </mxCell>
        <mxCell id="ziUqMleKNXKpgkatQRkx-19" value="" style="shape=table;html=1;whiteSpace=wrap;startSize=0;container=1;collapsible=0;childLayout=tableLayout;fillColor=#FFFFCC;" vertex="1" parent="1">
          <mxGeometry x="285" y="50" width="70" height="40" as="geometry" />
        </mxCell>
        <mxCell id="ziUqMleKNXKpgkatQRkx-20" value="" style="shape=partialRectangle;html=1;whiteSpace=wrap;collapsible=0;dropTarget=0;pointerEvents=0;fillColor=none;top=0;left=0;bottom=0;right=0;points=[[0,0.5],[1,0.5]];portConstraint=eastwest;" vertex="1" parent="ziUqMleKNXKpgkatQRkx-19">
          <mxGeometry width="70" height="20" as="geometry" />
        </mxCell>
        <mxCell id="ziUqMleKNXKpgkatQRkx-21" value="&lt;font style=&quot;font-size: 9px&quot;&gt;Lits of Songs&lt;/font&gt;" style="shape=partialRectangle;html=1;whiteSpace=wrap;connectable=0;overflow=hidden;fillColor=none;top=0;left=0;bottom=0;right=0;" vertex="1" parent="ziUqMleKNXKpgkatQRkx-20">
          <mxGeometry width="70" height="20" as="geometry" />
        </mxCell>
        <mxCell id="ziUqMleKNXKpgkatQRkx-22" value="" style="shape=partialRectangle;html=1;whiteSpace=wrap;collapsible=0;dropTarget=0;pointerEvents=0;fillColor=none;top=0;left=0;bottom=0;right=0;points=[[0,0.5],[1,0.5]];portConstraint=eastwest;" vertex="1" parent="ziUqMleKNXKpgkatQRkx-19">
          <mxGeometry y="20" width="70" height="20" as="geometry" />
        </mxCell>
        <mxCell id="ziUqMleKNXKpgkatQRkx-23" value="&lt;font style=&quot;font-size: 8px&quot;&gt;Selected song&lt;/font&gt;" style="shape=partialRectangle;html=1;whiteSpace=wrap;connectable=0;overflow=hidden;fillColor=none;top=0;left=0;bottom=0;right=0;" vertex="1" parent="ziUqMleKNXKpgkatQRkx-22">
          <mxGeometry width="70" height="20" as="geometry" />
        </mxCell>
        <mxCell id="ziUqMleKNXKpgkatQRkx-24" value="Selected Songs" style="text;html=1;strokeColor=none;fillColor=none;align=center;verticalAlign=middle;whiteSpace=wrap;rounded=0;" vertex="1" parent="1">
          <mxGeometry x="460" y="130" width="40" height="20" as="geometry" />
        </mxCell>
        <mxCell id="ziUqMleKNXKpgkatQRkx-25" value="List of Songs&lt;br&gt;OnSingSelect" style="text;html=1;strokeColor=none;fillColor=none;align=center;verticalAlign=middle;whiteSpace=wrap;rounded=0;" vertex="1" parent="1">
          <mxGeometry x="80" y="130" width="40" height="20" as="geometry" />
        </mxCell>
        <mxCell id="ziUqMleKNXKpgkatQRkx-26" value="Without Redux" style="rounded=0;whiteSpace=wrap;html=1;strokeColor=#99FF99;fillColor=#97D077;" vertex="1" parent="1">
          <mxGeometry x="530" y="40" width="120" height="60" as="geometry" />
        </mxCell>
      </root>
    </mxGraphModel>
  </diagram>
  <diagram id="QsX7AoVGFYbpNI4FQIsy" name="Page-2">
    <mxGraphModel dx="706" dy="288" grid="1" gridSize="10" guides="1" tooltips="1" connect="1" arrows="1" fold="1" page="1" pageScale="1" pageWidth="850" pageHeight="1100" math="0" shadow="0">
      <root>
        <mxCell id="fe80OieK4fyZ8OIEd-3j-0" />
        <mxCell id="fe80OieK4fyZ8OIEd-3j-1" parent="fe80OieK4fyZ8OIEd-3j-0" />
        <mxCell id="fe80OieK4fyZ8OIEd-3j-2" value="Redux" style="rounded=0;whiteSpace=wrap;html=1;strokeColor=#99FF99;fillColor=#EA6B66;" vertex="1" parent="fe80OieK4fyZ8OIEd-3j-1">
          <mxGeometry x="50" y="50" width="120" height="60" as="geometry" />
        </mxCell>
        <mxCell id="fe80OieK4fyZ8OIEd-3j-3" value="Reducers" style="rounded=0;whiteSpace=wrap;html=1;strokeColor=#99FF99;fillColor=#EA6B66;" vertex="1" parent="fe80OieK4fyZ8OIEd-3j-1">
          <mxGeometry x="50" y="140" width="120" height="60" as="geometry" />
        </mxCell>
        <mxCell id="fe80OieK4fyZ8OIEd-3j-4" value="Song List Reducer" style="rounded=0;whiteSpace=wrap;html=1;strokeColor=#99FF99;fillColor=#FFFFCC;" vertex="1" parent="fe80OieK4fyZ8OIEd-3j-1">
          <mxGeometry x="50" y="200" width="120" height="40" as="geometry" />
        </mxCell>
        <mxCell id="fe80OieK4fyZ8OIEd-3j-5" value="Selected song reducer" style="rounded=0;whiteSpace=wrap;html=1;strokeColor=#99FF99;fillColor=#FFFFCC;" vertex="1" parent="fe80OieK4fyZ8OIEd-3j-1">
          <mxGeometry x="50" y="240" width="120" height="50" as="geometry" />
        </mxCell>
        <mxCell id="fe80OieK4fyZ8OIEd-3j-6" value="Action Creators" style="rounded=0;whiteSpace=wrap;html=1;strokeColor=#99FF99;fillColor=#EA6B66;" vertex="1" parent="fe80OieK4fyZ8OIEd-3j-1">
          <mxGeometry x="50" y="310" width="120" height="30" as="geometry" />
        </mxCell>
        <mxCell id="fe80OieK4fyZ8OIEd-3j-7" value="Select Song" style="rounded=0;whiteSpace=wrap;html=1;strokeColor=#99FF99;fillColor=#FFFFCC;" vertex="1" parent="fe80OieK4fyZ8OIEd-3j-1">
          <mxGeometry x="50" y="340" width="120" height="50" as="geometry" />
        </mxCell>
        <mxCell id="fe80OieK4fyZ8OIEd-3j-11" style="edgeStyle=orthogonalEdgeStyle;rounded=0;orthogonalLoop=1;jettySize=auto;html=1;exitX=0.5;exitY=1;exitDx=0;exitDy=0;entryX=0.5;entryY=0;entryDx=0;entryDy=0;" edge="1" parent="fe80OieK4fyZ8OIEd-3j-1" source="fe80OieK4fyZ8OIEd-3j-8" target="fe80OieK4fyZ8OIEd-3j-9">
          <mxGeometry relative="1" as="geometry">
            <mxPoint x="380" y="210" as="targetPoint" />
            <Array as="points">
              <mxPoint x="380" y="205" />
              <mxPoint x="300" y="205" />
            </Array>
          </mxGeometry>
        </mxCell>
        <mxCell id="fe80OieK4fyZ8OIEd-3j-13" style="edgeStyle=orthogonalEdgeStyle;rounded=0;orthogonalLoop=1;jettySize=auto;html=1;" edge="1" parent="fe80OieK4fyZ8OIEd-3j-1" source="fe80OieK4fyZ8OIEd-3j-8" target="fe80OieK4fyZ8OIEd-3j-10">
          <mxGeometry relative="1" as="geometry" />
        </mxCell>
        <mxCell id="fe80OieK4fyZ8OIEd-3j-8" value="APP" style="rounded=0;whiteSpace=wrap;html=1;strokeColor=#99FF99;fillColor=#D4E1F5;" vertex="1" parent="fe80OieK4fyZ8OIEd-3j-1">
          <mxGeometry x="320" y="120" width="120" height="60" as="geometry" />
        </mxCell>
        <mxCell id="fe80OieK4fyZ8OIEd-3j-9" value="Song List" style="rounded=0;whiteSpace=wrap;html=1;strokeColor=#99FF99;fillColor=#D4E1F5;" vertex="1" parent="fe80OieK4fyZ8OIEd-3j-1">
          <mxGeometry x="240" y="230" width="120" height="60" as="geometry" />
        </mxCell>
        <mxCell id="fe80OieK4fyZ8OIEd-3j-10" value="Song Detail" style="rounded=0;whiteSpace=wrap;html=1;strokeColor=#99FF99;fillColor=#D4E1F5;" vertex="1" parent="fe80OieK4fyZ8OIEd-3j-1">
          <mxGeometry x="440" y="230" width="120" height="60" as="geometry" />
        </mxCell>
      </root>
    </mxGraphModel>
  </diagram>
  <diagram id="7-cM6QlNSQRVcOmr-a2N" name="Page-3">
    <mxGraphModel dx="706" dy="288" grid="1" gridSize="10" guides="1" tooltips="1" connect="1" arrows="1" fold="1" page="1" pageScale="1" pageWidth="850" pageHeight="1100" math="0" shadow="0">
      <root>
        <mxCell id="3xYJVkwkWS3ytC11g03D-0" />
        <mxCell id="3xYJVkwkWS3ytC11g03D-1" parent="3xYJVkwkWS3ytC11g03D-0" />
        <mxCell id="3xYJVkwkWS3ytC11g03D-2" value="" style="rounded=0;whiteSpace=wrap;html=1;strokeColor=#99FF99;fillColor=#D4E1F5;" vertex="1" parent="3xYJVkwkWS3ytC11g03D-1">
          <mxGeometry x="40" y="30" width="120" height="60" as="geometry" />
        </mxCell>
        <mxCell id="3xYJVkwkWS3ytC11g03D-3" value="" style="rounded=0;whiteSpace=wrap;html=1;strokeColor=#99FF99;fillColor=#D4E1F5;" vertex="1" parent="3xYJVkwkWS3ytC11g03D-1">
          <mxGeometry x="40" y="180" width="120" height="60" as="geometry" />
        </mxCell>
        <mxCell id="2bf2kTqy-uCFpi-fjknT-4" style="edgeStyle=orthogonalEdgeStyle;rounded=0;orthogonalLoop=1;jettySize=auto;html=1;exitX=0.5;exitY=1;exitDx=0;exitDy=0;entryX=0.5;entryY=0;entryDx=0;entryDy=0;" edge="1" parent="3xYJVkwkWS3ytC11g03D-1" source="2bf2kTqy-uCFpi-fjknT-0" target="2bf2kTqy-uCFpi-fjknT-1">
          <mxGeometry relative="1" as="geometry" />
        </mxCell>
        <mxCell id="2bf2kTqy-uCFpi-fjknT-8" style="edgeStyle=orthogonalEdgeStyle;rounded=0;orthogonalLoop=1;jettySize=auto;html=1;exitX=1;exitY=0.5;exitDx=0;exitDy=0;entryX=1;entryY=0.5;entryDx=0;entryDy=0;" edge="1" parent="3xYJVkwkWS3ytC11g03D-1" source="2bf2kTqy-uCFpi-fjknT-0" target="2bf2kTqy-uCFpi-fjknT-2">
          <mxGeometry relative="1" as="geometry">
            <mxPoint x="480" y="220" as="targetPoint" />
            <Array as="points">
              <mxPoint x="460" y="60" />
              <mxPoint x="460" y="220" />
            </Array>
          </mxGeometry>
        </mxCell>
        <mxCell id="2bf2kTqy-uCFpi-fjknT-0" value="Provider" style="rounded=0;whiteSpace=wrap;html=1;strokeColor=#99FF99;fillColor=#D4E1F5;" vertex="1" parent="3xYJVkwkWS3ytC11g03D-1">
          <mxGeometry x="210" y="30" width="120" height="60" as="geometry" />
        </mxCell>
        <mxCell id="2bf2kTqy-uCFpi-fjknT-5" style="edgeStyle=orthogonalEdgeStyle;rounded=0;orthogonalLoop=1;jettySize=auto;html=1;exitX=0.5;exitY=1;exitDx=0;exitDy=0;entryX=0.5;entryY=0;entryDx=0;entryDy=0;" edge="1" parent="3xYJVkwkWS3ytC11g03D-1" source="2bf2kTqy-uCFpi-fjknT-1" target="2bf2kTqy-uCFpi-fjknT-2">
          <mxGeometry relative="1" as="geometry" />
        </mxCell>
        <mxCell id="2bf2kTqy-uCFpi-fjknT-1" value="APP" style="rounded=0;whiteSpace=wrap;html=1;strokeColor=#99FF99;fillColor=#D4E1F5;" vertex="1" parent="3xYJVkwkWS3ytC11g03D-1">
          <mxGeometry x="210" y="110" width="120" height="60" as="geometry" />
        </mxCell>
        <mxCell id="2bf2kTqy-uCFpi-fjknT-6" style="edgeStyle=orthogonalEdgeStyle;rounded=0;orthogonalLoop=1;jettySize=auto;html=1;exitX=0.5;exitY=1;exitDx=0;exitDy=0;entryX=0.5;entryY=0;entryDx=0;entryDy=0;" edge="1" parent="3xYJVkwkWS3ytC11g03D-1" source="2bf2kTqy-uCFpi-fjknT-2" target="2bf2kTqy-uCFpi-fjknT-3">
          <mxGeometry relative="1" as="geometry" />
        </mxCell>
        <mxCell id="2bf2kTqy-uCFpi-fjknT-11" style="edgeStyle=orthogonalEdgeStyle;rounded=0;orthogonalLoop=1;jettySize=auto;html=1;exitX=1;exitY=0.25;exitDx=0;exitDy=0;entryX=1;entryY=0.75;entryDx=0;entryDy=0;" edge="1" parent="3xYJVkwkWS3ytC11g03D-1" source="2bf2kTqy-uCFpi-fjknT-2" target="2bf2kTqy-uCFpi-fjknT-0">
          <mxGeometry relative="1" as="geometry" />
        </mxCell>
        <mxCell id="2bf2kTqy-uCFpi-fjknT-2" value="Connect" style="rounded=0;whiteSpace=wrap;html=1;strokeColor=#99FF99;fillColor=#D4E1F5;" vertex="1" parent="3xYJVkwkWS3ytC11g03D-1">
          <mxGeometry x="210" y="190" width="120" height="60" as="geometry" />
        </mxCell>
        <mxCell id="2bf2kTqy-uCFpi-fjknT-3" value="SongList" style="rounded=0;whiteSpace=wrap;html=1;strokeColor=#99FF99;fillColor=#D4E1F5;" vertex="1" parent="3xYJVkwkWS3ytC11g03D-1">
          <mxGeometry x="210" y="260" width="120" height="60" as="geometry" />
        </mxCell>
        <mxCell id="2bf2kTqy-uCFpi-fjknT-13" value="" style="rounded=0;whiteSpace=wrap;html=1;strokeColor=#99FF99;fillColor=#D4E1F5;" vertex="1" parent="3xYJVkwkWS3ytC11g03D-1">
          <mxGeometry x="350" y="260" width="120" height="20" as="geometry" />
        </mxCell>
        <mxCell id="2bf2kTqy-uCFpi-fjknT-14" value="" style="rounded=0;whiteSpace=wrap;html=1;strokeColor=#99FF99;fillColor=#D4E1F5;" vertex="1" parent="3xYJVkwkWS3ytC11g03D-1">
          <mxGeometry x="350" y="280" width="120" height="20" as="geometry" />
        </mxCell>
        <mxCell id="2bf2kTqy-uCFpi-fjknT-15" value="&lt;font style=&quot;font-size: 9px&quot;&gt;Tell me about changes to the list of songs&lt;/font&gt;" style="text;html=1;strokeColor=none;fillColor=none;align=center;verticalAlign=middle;whiteSpace=wrap;rounded=0;" vertex="1" parent="3xYJVkwkWS3ytC11g03D-1">
          <mxGeometry x="340" y="160" width="40" height="20" as="geometry" />
        </mxCell>
      </root>
    </mxGraphModel>
  </diagram>
</mxfile>
